<mxfile host="app.diagrams.net" modified="2020-09-15T15:37:02.216Z" agent="5.0 (Windows NT 10.0; Win64; x64) AppleWebKit/537.36 (KHTML, like Gecko) Chrome/84.0.4147.89 Safari/537.36" etag="55WqXS9Gjta0vsdGeZ8_" version="13.6.10" type="github">
  <diagram id="R2lEEEUBdFMjLlhIrx00" name="Page-1">
    <mxGraphModel dx="1038" dy="617" grid="1" gridSize="10" guides="1" tooltips="1" connect="1" arrows="1" fold="1" page="1" pageScale="1" pageWidth="850" pageHeight="1100" math="0" shadow="0" extFonts="Permanent Marker^https://fonts.googleapis.com/css?family=Permanent+Marker">
      <root>
        <mxCell id="0" />
        <mxCell id="1" parent="0" />
        <mxCell id="to8GcL7aMmpwi5y5FHz8-1" value="&lt;font style=&quot;font-size: 16px&quot;&gt;Employee&lt;/font&gt;" style="rounded=0;whiteSpace=wrap;html=1;sketch=1;shadow=0;strokeWidth=2;fillColor=#b1ddf0;strokeColor=#10739e;" vertex="1" parent="1">
          <mxGeometry x="300" y="430" width="120" height="60" as="geometry" />
        </mxCell>
        <mxCell id="to8GcL7aMmpwi5y5FHz8-2" value="&lt;font style=&quot;font-size: 15px&quot;&gt;SSN&lt;/font&gt;" style="ellipse;whiteSpace=wrap;html=1;sketch=1;shadow=0;strokeWidth=2;fillColor=#b1ddf0;strokeColor=#10739e;" vertex="1" parent="1">
          <mxGeometry x="180" y="250" width="100" height="60" as="geometry" />
        </mxCell>
        <mxCell id="to8GcL7aMmpwi5y5FHz8-3" value="&lt;font style=&quot;font-size: 15px&quot;&gt;Salary&lt;/font&gt;" style="ellipse;whiteSpace=wrap;html=1;sketch=1;shadow=0;strokeWidth=2;fillColor=#b1ddf0;strokeColor=#10739e;" vertex="1" parent="1">
          <mxGeometry x="310" y="200" width="100" height="60" as="geometry" />
        </mxCell>
        <mxCell id="to8GcL7aMmpwi5y5FHz8-4" value="&lt;font style=&quot;font-size: 15px&quot;&gt;Gender&lt;/font&gt;" style="ellipse;whiteSpace=wrap;html=1;sketch=1;shadow=0;strokeWidth=2;fillColor=#b1ddf0;strokeColor=#10739e;" vertex="1" parent="1">
          <mxGeometry x="440" y="250" width="100" height="60" as="geometry" />
        </mxCell>
        <mxCell id="to8GcL7aMmpwi5y5FHz8-5" value="&lt;font style=&quot;font-size: 15px&quot;&gt;Date of Birth&lt;/font&gt;" style="ellipse;whiteSpace=wrap;html=1;sketch=1;shadow=0;strokeWidth=2;fillColor=#b1ddf0;strokeColor=#10739e;" vertex="1" parent="1">
          <mxGeometry x="80" y="360" width="100" height="60" as="geometry" />
        </mxCell>
        <mxCell id="to8GcL7aMmpwi5y5FHz8-6" value="&lt;font style=&quot;font-size: 15px&quot;&gt;Department&lt;/font&gt;" style="ellipse;whiteSpace=wrap;html=1;sketch=1;shadow=0;strokeWidth=2;fillColor=#b1ddf0;strokeColor=#10739e;" vertex="1" parent="1">
          <mxGeometry x="540" y="360" width="100" height="60" as="geometry" />
        </mxCell>
        <mxCell id="to8GcL7aMmpwi5y5FHz8-7" value="&lt;font style=&quot;font-size: 15px&quot;&gt;Supervisor&lt;/font&gt;" style="ellipse;whiteSpace=wrap;html=1;sketch=1;shadow=0;strokeWidth=2;fillColor=#b1ddf0;strokeColor=#10739e;" vertex="1" parent="1">
          <mxGeometry x="540" y="450" width="100" height="60" as="geometry" />
        </mxCell>
        <mxCell id="to8GcL7aMmpwi5y5FHz8-8" value="&lt;font style=&quot;font-size: 15px&quot;&gt;Address&lt;/font&gt;" style="ellipse;whiteSpace=wrap;html=1;sketch=1;shadow=0;strokeWidth=2;fillColor=#b1ddf0;strokeColor=#10739e;" vertex="1" parent="1">
          <mxGeometry x="80" y="450" width="100" height="60" as="geometry" />
        </mxCell>
        <mxCell id="to8GcL7aMmpwi5y5FHz8-9" value="&lt;font style=&quot;font-size: 15px&quot;&gt;Name&lt;/font&gt;" style="ellipse;whiteSpace=wrap;html=1;sketch=1;shadow=0;strokeWidth=2;fillColor=#b1ddf0;strokeColor=#10739e;" vertex="1" parent="1">
          <mxGeometry x="200" y="580" width="100" height="60" as="geometry" />
        </mxCell>
        <mxCell id="to8GcL7aMmpwi5y5FHz8-10" value="&lt;font style=&quot;font-size: 15px&quot;&gt;Working on&lt;/font&gt;" style="ellipse;whiteSpace=wrap;html=1;sketch=1;shadow=0;strokeWidth=2;fillColor=#b1ddf0;strokeColor=#10739e;" vertex="1" parent="1">
          <mxGeometry x="400" y="580" width="100" height="60" as="geometry" />
        </mxCell>
        <mxCell id="to8GcL7aMmpwi5y5FHz8-11" value="&lt;font style=&quot;font-size: 15px&quot;&gt;Hours&lt;/font&gt;" style="ellipse;whiteSpace=wrap;html=1;sketch=1;shadow=0;strokeWidth=2;fillColor=#b1ddf0;strokeColor=#10739e;" vertex="1" parent="1">
          <mxGeometry x="560" y="580" width="100" height="60" as="geometry" />
        </mxCell>
        <mxCell id="to8GcL7aMmpwi5y5FHz8-12" value="&lt;font style=&quot;font-size: 15px&quot;&gt;Project&lt;/font&gt;" style="ellipse;whiteSpace=wrap;html=1;sketch=1;shadow=0;strokeWidth=2;fillColor=#b1ddf0;strokeColor=#10739e;" vertex="1" parent="1">
          <mxGeometry x="400" y="720" width="100" height="60" as="geometry" />
        </mxCell>
        <mxCell id="to8GcL7aMmpwi5y5FHz8-13" value="&lt;font style=&quot;font-size: 15px&quot;&gt;First Name&lt;/font&gt;" style="ellipse;whiteSpace=wrap;html=1;sketch=1;shadow=0;strokeWidth=2;fillColor=#b1ddf0;strokeColor=#10739e;" vertex="1" parent="1">
          <mxGeometry x="30" y="600" width="100" height="60" as="geometry" />
        </mxCell>
        <mxCell id="to8GcL7aMmpwi5y5FHz8-14" value="&lt;font style=&quot;font-size: 15px&quot;&gt;Last Name&lt;/font&gt;" style="ellipse;whiteSpace=wrap;html=1;sketch=1;shadow=0;strokeWidth=2;fillColor=#b1ddf0;strokeColor=#10739e;" vertex="1" parent="1">
          <mxGeometry x="200" y="720" width="100" height="60" as="geometry" />
        </mxCell>
        <mxCell id="to8GcL7aMmpwi5y5FHz8-15" value="" style="endArrow=none;html=1;entryX=0.5;entryY=1;entryDx=0;entryDy=0;exitX=0.5;exitY=0;exitDx=0;exitDy=0;sketch=1;shadow=0;strokeWidth=2;fillColor=#b1ddf0;strokeColor=#10739e;" edge="1" parent="1" source="to8GcL7aMmpwi5y5FHz8-1" target="to8GcL7aMmpwi5y5FHz8-3">
          <mxGeometry width="50" height="50" relative="1" as="geometry">
            <mxPoint x="320" y="390" as="sourcePoint" />
            <mxPoint x="370" y="340" as="targetPoint" />
          </mxGeometry>
        </mxCell>
        <mxCell id="to8GcL7aMmpwi5y5FHz8-16" value="" style="endArrow=none;html=1;exitX=1;exitY=0;exitDx=0;exitDy=0;entryX=0.5;entryY=1;entryDx=0;entryDy=0;sketch=1;shadow=0;strokeWidth=2;fillColor=#b1ddf0;strokeColor=#10739e;" edge="1" parent="1" source="to8GcL7aMmpwi5y5FHz8-1" target="to8GcL7aMmpwi5y5FHz8-4">
          <mxGeometry width="50" height="50" relative="1" as="geometry">
            <mxPoint x="450" y="410" as="sourcePoint" />
            <mxPoint x="500" y="360" as="targetPoint" />
          </mxGeometry>
        </mxCell>
        <mxCell id="to8GcL7aMmpwi5y5FHz8-17" value="" style="endArrow=none;html=1;exitX=1;exitY=0.25;exitDx=0;exitDy=0;entryX=0.048;entryY=0.733;entryDx=0;entryDy=0;entryPerimeter=0;sketch=1;shadow=0;strokeWidth=2;fillColor=#b1ddf0;strokeColor=#10739e;" edge="1" parent="1" source="to8GcL7aMmpwi5y5FHz8-1" target="to8GcL7aMmpwi5y5FHz8-6">
          <mxGeometry width="50" height="50" relative="1" as="geometry">
            <mxPoint x="450" y="480" as="sourcePoint" />
            <mxPoint x="500" y="430" as="targetPoint" />
          </mxGeometry>
        </mxCell>
        <mxCell id="to8GcL7aMmpwi5y5FHz8-18" value="" style="endArrow=none;html=1;exitX=1;exitY=0.75;exitDx=0;exitDy=0;sketch=1;shadow=0;strokeWidth=2;fillColor=#b1ddf0;strokeColor=#10739e;" edge="1" parent="1" source="to8GcL7aMmpwi5y5FHz8-1" target="to8GcL7aMmpwi5y5FHz8-7">
          <mxGeometry width="50" height="50" relative="1" as="geometry">
            <mxPoint x="470" y="550" as="sourcePoint" />
            <mxPoint x="520" y="500" as="targetPoint" />
          </mxGeometry>
        </mxCell>
        <mxCell id="to8GcL7aMmpwi5y5FHz8-20" value="" style="endArrow=none;html=1;exitX=0.75;exitY=1;exitDx=0;exitDy=0;entryX=0.352;entryY=0;entryDx=0;entryDy=0;entryPerimeter=0;sketch=1;shadow=0;strokeWidth=2;fillColor=#b1ddf0;strokeColor=#10739e;" edge="1" parent="1" source="to8GcL7aMmpwi5y5FHz8-1" target="to8GcL7aMmpwi5y5FHz8-10">
          <mxGeometry width="50" height="50" relative="1" as="geometry">
            <mxPoint x="420" y="570" as="sourcePoint" />
            <mxPoint x="440" y="570" as="targetPoint" />
          </mxGeometry>
        </mxCell>
        <mxCell id="to8GcL7aMmpwi5y5FHz8-23" value="" style="endArrow=none;html=1;exitX=1;exitY=0.5;exitDx=0;exitDy=0;entryX=0;entryY=0.5;entryDx=0;entryDy=0;sketch=1;shadow=0;strokeWidth=2;fillColor=#b1ddf0;strokeColor=#10739e;" edge="1" parent="1" source="to8GcL7aMmpwi5y5FHz8-10" target="to8GcL7aMmpwi5y5FHz8-11">
          <mxGeometry width="50" height="50" relative="1" as="geometry">
            <mxPoint x="510" y="640" as="sourcePoint" />
            <mxPoint x="560" y="590" as="targetPoint" />
          </mxGeometry>
        </mxCell>
        <mxCell id="to8GcL7aMmpwi5y5FHz8-24" value="" style="endArrow=none;html=1;exitX=0.5;exitY=0;exitDx=0;exitDy=0;entryX=0.5;entryY=1;entryDx=0;entryDy=0;sketch=1;shadow=0;strokeWidth=2;fillColor=#b1ddf0;strokeColor=#10739e;" edge="1" parent="1" source="to8GcL7aMmpwi5y5FHz8-12" target="to8GcL7aMmpwi5y5FHz8-10">
          <mxGeometry width="50" height="50" relative="1" as="geometry">
            <mxPoint x="430" y="700" as="sourcePoint" />
            <mxPoint x="480" y="650" as="targetPoint" />
          </mxGeometry>
        </mxCell>
        <mxCell id="to8GcL7aMmpwi5y5FHz8-25" value="" style="endArrow=none;html=1;entryX=0.5;entryY=1;entryDx=0;entryDy=0;exitX=0.5;exitY=0;exitDx=0;exitDy=0;sketch=1;shadow=0;strokeWidth=2;fillColor=#b1ddf0;strokeColor=#10739e;" edge="1" parent="1" source="to8GcL7aMmpwi5y5FHz8-14" target="to8GcL7aMmpwi5y5FHz8-9">
          <mxGeometry width="50" height="50" relative="1" as="geometry">
            <mxPoint x="230" y="710" as="sourcePoint" />
            <mxPoint x="280" y="660" as="targetPoint" />
          </mxGeometry>
        </mxCell>
        <mxCell id="to8GcL7aMmpwi5y5FHz8-26" value="" style="endArrow=none;html=1;entryX=0;entryY=0.5;entryDx=0;entryDy=0;sketch=1;shadow=0;strokeWidth=2;fillColor=#b1ddf0;strokeColor=#10739e;" edge="1" parent="1" source="to8GcL7aMmpwi5y5FHz8-13" target="to8GcL7aMmpwi5y5FHz8-9">
          <mxGeometry width="50" height="50" relative="1" as="geometry">
            <mxPoint x="140" y="650" as="sourcePoint" />
            <mxPoint x="190" y="600" as="targetPoint" />
          </mxGeometry>
        </mxCell>
        <mxCell id="to8GcL7aMmpwi5y5FHz8-27" value="" style="endArrow=none;html=1;entryX=0.167;entryY=1.007;entryDx=0;entryDy=0;entryPerimeter=0;sketch=1;shadow=0;strokeWidth=2;fillColor=#b1ddf0;strokeColor=#10739e;" edge="1" parent="1" source="to8GcL7aMmpwi5y5FHz8-9" target="to8GcL7aMmpwi5y5FHz8-1">
          <mxGeometry width="50" height="50" relative="1" as="geometry">
            <mxPoint x="270" y="560" as="sourcePoint" />
            <mxPoint x="320" y="510" as="targetPoint" />
          </mxGeometry>
        </mxCell>
        <mxCell id="to8GcL7aMmpwi5y5FHz8-28" value="" style="endArrow=none;html=1;exitX=1;exitY=0.5;exitDx=0;exitDy=0;entryX=0;entryY=0.75;entryDx=0;entryDy=0;sketch=1;shadow=0;strokeWidth=2;fillColor=#b1ddf0;strokeColor=#10739e;" edge="1" parent="1" source="to8GcL7aMmpwi5y5FHz8-8" target="to8GcL7aMmpwi5y5FHz8-1">
          <mxGeometry width="50" height="50" relative="1" as="geometry">
            <mxPoint x="230" y="510" as="sourcePoint" />
            <mxPoint x="280" y="460" as="targetPoint" />
          </mxGeometry>
        </mxCell>
        <mxCell id="to8GcL7aMmpwi5y5FHz8-29" value="" style="endArrow=none;html=1;entryX=0;entryY=0.25;entryDx=0;entryDy=0;sketch=1;shadow=0;strokeWidth=2;fillColor=#b1ddf0;strokeColor=#10739e;" edge="1" parent="1" source="to8GcL7aMmpwi5y5FHz8-5" target="to8GcL7aMmpwi5y5FHz8-1">
          <mxGeometry width="50" height="50" relative="1" as="geometry">
            <mxPoint x="260" y="430" as="sourcePoint" />
            <mxPoint x="310" y="380" as="targetPoint" />
          </mxGeometry>
        </mxCell>
        <mxCell id="to8GcL7aMmpwi5y5FHz8-30" value="" style="endArrow=none;html=1;exitX=0.648;exitY=0.993;exitDx=0;exitDy=0;exitPerimeter=0;entryX=0;entryY=0;entryDx=0;entryDy=0;sketch=1;shadow=0;strokeWidth=2;fillColor=#b1ddf0;strokeColor=#10739e;" edge="1" parent="1" source="to8GcL7aMmpwi5y5FHz8-2" target="to8GcL7aMmpwi5y5FHz8-1">
          <mxGeometry width="50" height="50" relative="1" as="geometry">
            <mxPoint x="250" y="380" as="sourcePoint" />
            <mxPoint x="300" y="330" as="targetPoint" />
          </mxGeometry>
        </mxCell>
        <mxCell id="to8GcL7aMmpwi5y5FHz8-31" value="&lt;font style=&quot;font-size: 15px&quot;&gt;Middle Name&lt;/font&gt;" style="ellipse;whiteSpace=wrap;html=1;sketch=1;shadow=0;strokeWidth=2;fillColor=#b1ddf0;strokeColor=#10739e;" vertex="1" parent="1">
          <mxGeometry x="60" y="690" width="100" height="60" as="geometry" />
        </mxCell>
        <mxCell id="to8GcL7aMmpwi5y5FHz8-32" value="" style="endArrow=none;html=1;exitX=1;exitY=0;exitDx=0;exitDy=0;entryX=0.232;entryY=0.947;entryDx=0;entryDy=0;entryPerimeter=0;sketch=1;shadow=0;strokeWidth=2;fillColor=#b1ddf0;strokeColor=#10739e;" edge="1" parent="1" source="to8GcL7aMmpwi5y5FHz8-31" target="to8GcL7aMmpwi5y5FHz8-9">
          <mxGeometry width="50" height="50" relative="1" as="geometry">
            <mxPoint x="170" y="690" as="sourcePoint" />
            <mxPoint x="220" y="640" as="targetPoint" />
          </mxGeometry>
        </mxCell>
      </root>
    </mxGraphModel>
  </diagram>
</mxfile>
